<svg width="326" height="326" viewBox="0 0 326 326" fill="none" xmlns="http://www.w3.org/2000/svg">
<circle cx="163" cy="163" r="163" fill="#052E24"/>
<path d="M110 122C110 141.33 94.33 157 75 157C55.67 157 40 141.33 40 122C40 102.67 55.67 87 75 87C94.33 87 110 102.67 110 122ZM45.2097 122C45.2097 138.453 58.5473 151.79 75 151.79C91.4527 151.79 104.79 138.453 104.79 122C104.79 105.547 91.4527 92.2097 75 92.2097C58.5473 92.2097 45.2097 105.547 45.2097 122Z" fill="#D8E9FD"/>
<path d="M198 122C198 141.33 182.33 157 163 157C143.67 157 128 141.33 128 122C128 102.67 143.67 87 163 87C182.33 87 198 102.67 198 122ZM142.888 122C142.888 133.108 151.892 142.112 163 142.112C174.108 142.112 183.112 133.108 183.112 122C183.112 110.892 174.108 101.888 163 101.888C151.892 101.888 142.888 110.892 142.888 122Z" fill="#D8E9FD"/>
<path d="M155 207C155 226.33 139.33 242 120 242C100.67 242 85 226.33 85 207C85 187.67 100.67 172 120 172C139.33 172 155 187.67 155 207ZM95.5144 207C95.5144 220.523 106.477 231.486 120 231.486C133.523 231.486 144.486 220.523 144.486 207C144.486 193.477 133.523 182.514 120 182.514C106.477 182.514 95.5144 193.477 95.5144 207Z" fill="#D8E9FD"/>
<path d="M245 207C245 226.33 229.33 242 210 242C190.67 242 175 226.33 175 207C175 187.67 190.67 172 210 172C229.33 172 245 187.67 245 207ZM203.437 207C203.437 210.625 206.375 213.563 210 213.563C213.625 213.563 216.563 210.625 216.563 207C216.563 203.375 213.625 200.437 210 200.437C206.375 200.437 203.437 203.375 203.437 207Z" fill="#D8E9FD"/>
<circle cx="251" cy="122" r="35" fill="#D8E9FD"/>
</svg>
